<svg width="16" height="16" viewBox="0 0 16 16" fill="none" xmlns="http://www.w3.org/2000/svg">
    <path fill-rule="evenodd" clip-rule="evenodd" d="M1.27284 1.27259C1.85862 0.686805 2.80837 0.686805 3.39416 1.27259L14.7275 12.6059C15.3133 13.1917 15.3133 14.1415 14.7275 14.7272C14.1417 15.313 13.192 15.313 12.6062 14.7272L1.27284 3.39391C0.687049 2.80813 0.687049 1.85838 1.27284 1.27259Z" fill="white"/>
    <path fill-rule="evenodd" clip-rule="evenodd" d="M14.7275 1.27259C15.3133 1.85838 15.3133 2.80813 14.7275 3.39391L3.39416 14.7272C2.80837 15.313 1.85862 15.313 1.27284 14.7272C0.687049 14.1415 0.687049 13.1917 1.27284 12.6059L12.6062 1.27259C13.192 0.686805 14.1417 0.686805 14.7275 1.27259Z" fill="white"/>
</svg>