<svg width="46" height="46" viewBox="0 0 46 46" fill="none" xmlns="http://www.w3.org/2000/svg">
<path d="M22.9984 45.9906C16.9061 45.9832 11.0653 43.5604 6.75647 39.2533C2.44766 34.9462 0.0224462 29.1064 0.0125122 23.0141C0.0125122 8.46604 13.0401 -1.66128 26.2334 0.225273C24.4595 2.3277 23.3739 4.96199 23.1048 7.04878C19.9275 7.02735 16.8161 7.95504 14.1693 9.713C11.5225 11.471 9.46084 13.9791 8.24845 16.9161C7.03607 19.8531 6.72817 23.0853 7.36422 26.1984C8.00026 29.3114 9.55128 32.1638 11.8185 34.3898C14.0858 36.6159 16.9661 38.1144 20.0903 38.6932C23.2145 39.2721 26.4405 38.905 29.3548 37.639C32.2691 36.373 34.739 34.2657 36.4481 31.5871C38.1573 28.9085 39.0278 25.7807 38.9481 22.6042C41.4464 22.1717 43.7782 21.0625 45.6903 19.3974C46.2074 22.6785 46.008 26.0326 45.1059 29.2293C44.2038 32.426 42.6203 35.3895 40.4643 37.9162C38.3083 40.4429 35.6308 42.4729 32.6159 43.8667C29.6009 45.2605 26.32 45.9851 22.9984 45.9906V45.9906Z" fill="url(#paint0_linear_105_125)"/>
<path d="M30.0722 19.8979C32.3311 25.5295 28.2326 30.7386 22.9984 30.7386C15.374 30.7386 12.3611 20.799 18.7216 16.5785C19.659 15.9519 20.7224 15.5385 21.8369 15.3674C22.9513 15.1963 24.0897 15.2716 25.1719 15.5881C26.2541 15.9046 27.2538 16.4545 28.1004 17.1992C28.9471 17.9438 29.6201 18.865 30.0722 19.8979V19.8979Z" fill="white"/>
<path d="M31.7492 6.72035C34.2521 1.54562 42.1205 3.32267 42.1299 9.08245C42.1297 9.81143 41.9838 10.533 41.7008 11.2048C41.4179 11.8766 41.0035 12.4851 40.4821 12.9946C39.9607 13.504 39.3428 13.9042 38.6646 14.1715C37.9864 14.4388 37.2616 14.5679 36.5328 14.5513C35.2002 12.411 33.3771 10.6189 31.2142 9.32335C31.1717 8.42457 31.3557 7.52952 31.7492 6.72035V6.72035Z" fill="white"/>
<defs>
<linearGradient id="paint0_linear_105_125" x1="11.3076" y1="12.0108" x2="31.4707" y2="35.4754" gradientUnits="userSpaceOnUse">
<stop stop-color="#F59E0B"/>
<stop offset="1" stop-color="#FACC15"/>
</linearGradient>
</defs>
</svg>
