<svg width="46" height="46" viewBox="0 0 46 46" fill="none" xmlns="http://www.w3.org/2000/svg">
    <g clip-path="url(#clip0_105_131)">
        <path d="M40.9256 37.2224C36.8653 42.8969 28.2662 47.3636 18.8732 45.6164C13.8694 44.6999 9.31073 42.15 5.91094 38.3659C2.51116 34.5818 0.462194 29.777 0.0848527 24.704C-0.292489 19.6309 1.02309 14.576 3.82563 10.3305C6.62816 6.085 10.7594 2.88871 15.5726 1.24204C20.0552 -0.303061 24.9081 -0.411545 29.4552 0.931698C34.0024 2.27494 38.0173 5.00302 40.9408 8.73589C36.4855 4.80855 31.3085 2.99681 25.4061 3.65769C19.5037 4.31858 14.7636 7.21661 11.4174 12.1543C8.98107 15.7602 7.82867 20.081 8.14558 24.4213C8.46249 28.7616 10.2303 32.8691 13.1645 36.0829C14.8879 38.0134 16.9863 39.5728 19.3319 40.6659C21.6774 41.759 24.2211 42.363 26.8077 42.4411C32.2049 42.6766 36.9033 40.8421 40.9256 37.2224V37.2224Z" fill="url(#paint0_linear_105_131)"/>
        <path d="M36.8008 23.0475C36.7909 25.7799 35.97 28.4478 34.4422 30.7131C32.9145 32.9784 30.7485 34.7392 28.219 35.7722C25.6894 36.8053 22.9101 37.0641 20.2333 36.5158C17.5565 35.9676 15.1028 34.637 13.183 32.6927C11.2632 30.7484 9.96389 28.2779 9.44968 25.5944C8.93548 22.9109 9.22954 20.1351 10.2946 17.6188C11.3597 15.1026 13.1478 12.9592 15.4323 11.4603C17.7169 9.96141 20.395 9.1745 23.1272 9.1993C26.7753 9.22741 30.2633 10.701 32.8266 13.297C35.3898 15.8929 36.819 19.3994 36.8008 23.0475V23.0475ZM13.8217 22.9678C13.8938 27.9662 17.711 32.1556 23.0285 32.1404C24.2355 32.1528 25.4326 31.923 26.5492 31.4645C27.6657 31.006 28.679 30.3282 29.5289 29.4712C30.3789 28.6141 31.0483 27.5953 31.4975 26.475C31.9467 25.3547 32.1666 24.1556 32.1442 22.9488C32.154 21.7464 31.9231 20.5541 31.4653 19.4422C31.0074 18.3304 30.3318 17.3213 29.4782 16.4744C28.6246 15.6275 27.6102 14.9599 26.4947 14.5108C25.3792 14.0618 24.1852 13.8404 22.9829 13.8597C18.0111 13.8483 13.9432 17.7149 13.8217 22.9678V22.9678Z" fill="url(#paint1_linear_105_131)"/>
        <path d="M13.5785 34.7536C17.9845 38.2897 22.9069 39.4671 28.3915 37.9061C31.7647 36.9448 34.6928 34.8288 36.664 31.9277C40.7661 26.0899 40.3255 18.0263 35.6537 12.7696C34.3179 11.2083 32.6807 9.93262 30.8403 9.01894C28.9999 8.10525 26.994 7.57233 24.9428 7.45209C20.6736 7.15963 16.8944 8.50799 13.5482 11.3187C14.0761 9.87534 17.9921 6.99631 20.8863 5.86064C23.7639 4.71178 26.8902 4.32835 29.9602 4.74777C34.1905 5.29001 38.1011 7.28511 41.0231 10.3919C43.9451 13.4986 45.697 17.524 45.9792 21.7797C46.2614 26.0353 45.0563 30.2568 42.5701 33.7221C40.0839 37.1875 36.471 39.6814 32.3492 40.7775C24.4832 42.8931 17.1375 39.4481 13.5785 34.7536Z" fill="url(#paint2_linear_105_131)"/>
    </g>
    <defs>
        <linearGradient id="paint0_linear_105_131" x1="0.0227715" y1="23.0019" x2="40.9408" y2="23.0019" gradientUnits="userSpaceOnUse">
            <stop stop-color="#00E0FF"/>
            <stop offset="0.28" stop-color="#298AE5"/>
            <stop offset="0.33" stop-color="#2C84E3"/>
            <stop offset="0.93" stop-color="#5430C9"/>
        </linearGradient>
        <linearGradient id="paint1_linear_105_131" x1="9.20304" y1="23.002" x2="36.8008" y2="23.002" gradientUnits="userSpaceOnUse">
            <stop stop-color="#00E0FF"/>
            <stop offset="0.26" stop-color="#298AE5"/>
            <stop offset="0.31" stop-color="#2C84E3"/>
            <stop offset="0.93" stop-color="#5430C9"/>
        </linearGradient>
        <linearGradient id="paint2_linear_105_131" x1="13.5596" y1="22.9981" x2="46.0152" y2="22.9981" gradientUnits="userSpaceOnUse">
            <stop stop-color="#00E0FF"/>
            <stop offset="0.12" stop-color="#298AE5"/>
            <stop offset="0.17" stop-color="#2C84E3"/>
            <stop offset="0.85" stop-color="#5430C9"/>
        </linearGradient>
        <clipPath id="clip0_105_131">
            <rect width="46" height="46" fill="white"/>
        </clipPath>
    </defs>
</svg>
