<svg width="192" height="61" viewBox="0 0 192 61" fill="none" xmlns="http://www.w3.org/2000/svg">
    <rect width="46.586" height="50.5423" rx="2.40678" transform="matrix(0.97796 0.208794 5.72245e-07 -1 146.441 50.5424)" fill="#630EE1"/>
    <path d="M21.8343 39.0465V45.5929H2.34902V18.2519H21.4877V24.7983H9.85817V28.6492H19.7934V34.7335H9.85817V39.0465H21.8343Z" fill="white"/>
    <path d="M83.9924 27.1858C83.9924 27.1858 83.7742 27.0575 83.3378 26.8008C82.9014 26.544 82.3237 26.2616 81.6049 25.9536C80.8861 25.6198 80.1031 25.3246 79.2559 25.0679C78.4087 24.8112 77.5744 24.6828 76.7528 24.6828C76.111 24.6828 75.5848 24.7855 75.174 24.9909C74.7632 25.1962 74.5579 25.5428 74.5579 26.0306C74.5579 26.4927 74.7632 26.8649 75.174 27.1473C75.5848 27.4297 76.1624 27.6865 76.9069 27.9175C77.6771 28.1486 78.5884 28.4309 79.641 28.7647C81.3354 29.2781 82.7987 29.8686 84.031 30.5361C85.2632 31.2036 86.2131 32.0636 86.8806 33.1161C87.5481 34.143 87.8818 35.5165 87.8818 37.2366C87.8818 38.8796 87.5866 40.2659 86.9961 41.3955C86.4056 42.4994 85.6098 43.3851 84.6086 44.0526C83.6074 44.72 82.4906 45.2078 81.2583 45.5159C80.0261 45.7983 78.7681 45.9395 77.4845 45.9395C76.1752 45.9395 74.8018 45.8111 73.3641 45.5544C71.9521 45.272 70.5787 44.8997 69.2437 44.4376C67.9087 43.9499 66.6893 43.3851 65.5854 42.7433L68.8201 36.1583C68.8201 36.1583 69.0768 36.3124 69.5903 36.6204C70.1037 36.9285 70.784 37.2751 71.6312 37.6601C72.4784 38.0452 73.4154 38.3918 74.4423 38.6999C75.4949 39.0079 76.5475 39.162 77.6 39.162C78.4215 39.162 78.9863 39.0593 79.2944 38.8539C79.6281 38.6229 79.795 38.3276 79.795 37.9682C79.795 37.4291 79.5126 37.0183 78.9478 36.7359C78.383 36.4279 77.6385 36.1455 76.7143 35.8888C75.8158 35.6064 74.8146 35.2855 73.7107 34.926C72.119 34.3869 70.8097 33.7836 69.7828 33.1161C68.7559 32.423 67.9986 31.6143 67.5108 30.6901C67.023 29.7402 66.7792 28.5978 66.7792 27.2629C66.7792 25.2347 67.2541 23.5404 68.204 22.1797C69.1538 20.8191 70.3989 19.7922 71.9393 19.0991C73.5053 18.3802 75.1868 18.0208 76.9839 18.0208C78.3189 18.0208 79.6025 18.1877 80.8347 18.5214C82.0927 18.8295 83.2608 19.2146 84.339 19.6767C85.4429 20.1388 86.4056 20.5752 87.2272 20.986L83.9924 27.1858Z" fill="white"/>
    <path fill-rule="evenodd" clip-rule="evenodd" d="M139.258 44.8612C140.875 45.4774 142.569 45.7854 144.341 45.7854C146.869 45.7854 149.116 44.9608 151.08 43.3116V45.5929H157.28V31.0367H146.035V36.4279H150.783C150.068 37.1699 149.294 37.7732 148.461 38.2378C147.357 38.8282 146.202 39.1235 144.995 39.1235C144.045 39.1235 143.185 38.9566 142.415 38.6229C141.645 38.2634 140.978 37.7757 140.413 37.1595C139.874 36.5177 139.45 35.7604 139.142 34.8875C138.834 34.0147 138.68 33.0391 138.68 31.9609C138.68 30.9083 138.821 29.9456 139.104 29.0728C139.412 28.1742 139.835 27.4041 140.374 26.7622C140.939 26.1204 141.594 25.6198 142.338 25.2604C143.083 24.901 143.904 24.7213 144.803 24.7213C146.009 24.7213 147.152 25.055 148.23 25.7225C149.308 26.3643 150.117 27.2243 150.656 28.3026L156.24 24.0281C155.264 22.1797 153.775 20.7292 151.773 19.6767C149.77 18.5984 147.537 18.0593 145.072 18.0593C143.096 18.0593 141.26 18.4059 139.566 19.0991C137.871 19.7922 136.382 20.7678 135.099 22.0257C133.841 23.258 132.852 24.6956 132.133 26.3387C131.415 27.9817 131.055 29.7659 131.055 31.6913C131.055 33.9248 131.402 35.9144 132.095 37.6601C132.814 39.3802 133.789 40.8563 135.022 42.0886C136.254 43.2952 137.666 44.2194 139.258 44.8612Z" fill="white"/>
</svg>
