<svg width="46" height="46" viewBox="0 0 46 46" fill="none" xmlns="http://www.w3.org/2000/svg">
<g clip-path="url(#clip0_105_792)">
<path d="M45.9907 22.9984C45.9913 27.5483 44.6426 31.996 42.1151 35.7793C39.5876 39.5625 35.9949 42.5111 31.7914 44.2522C27.588 45.9934 22.9625 46.4488 18.5002 45.5609C14.0379 44.6729 9.93911 42.4816 6.72235 39.2639C3.50558 36.0463 1.31533 31.9469 0.428613 27.4843C-0.458101 23.0218 -0.00143692 18.3965 1.74084 14.1935C3.48313 9.99046 6.43275 6.39857 10.2166 3.87212C14.0005 1.34566 18.4487 -0.0018546 22.9985 1.91575e-06C29.0965 0.00331896 34.9436 2.42763 39.255 6.74013C43.5663 11.0526 45.989 16.9005 45.9907 22.9984Z" fill="#2081E2"/>
<path d="M11.3475 23.7776L11.4476 23.6211L17.4295 14.2572C17.4496 14.2264 17.4776 14.2016 17.5105 14.1852C17.5434 14.1688 17.5801 14.1615 17.6168 14.1641C17.6535 14.1666 17.6888 14.1789 17.7191 14.1997C17.7494 14.2205 17.7737 14.249 17.7893 14.2822C18.7873 16.5223 19.6665 19.3099 19.2473 21.0432C18.9728 21.9495 18.5771 22.8145 18.0709 23.6149C17.9985 23.7463 17.9191 23.8737 17.8331 23.9966C17.8141 24.0247 17.7884 24.0476 17.7584 24.0635C17.7284 24.0793 17.695 24.0875 17.661 24.0873H11.5227C11.4868 24.0867 11.4516 24.0767 11.4207 24.0583C11.3898 24.0399 11.3643 24.0138 11.3466 23.9825C11.3289 23.9512 11.3197 23.9159 11.3198 23.8799C11.32 23.844 11.3295 23.8087 11.3475 23.7776Z" fill="white"/>
<path d="M38.0158 25.5106V26.9936C38.0151 27.0348 38.0027 27.075 37.98 27.1093C37.9573 27.1437 37.9252 27.1709 37.8875 27.1876C37.4245 27.3847 35.8383 28.1262 35.1813 29.0303C33.4981 31.3705 32.2247 34.7275 29.337 34.7275H17.3513C16.3391 34.7255 15.3372 34.524 14.4029 34.1347C13.4686 33.7454 12.6201 33.1757 11.906 32.4584C11.1918 31.7411 10.626 30.8901 10.2408 29.954C9.85566 29.018 9.65869 28.0152 9.66116 27.003V26.8653C9.66115 26.8111 9.68247 26.7591 9.72052 26.7204C9.75857 26.6818 9.8103 26.6597 9.86452 26.6588H16.5472C16.5785 26.6604 16.6091 26.6683 16.6373 26.682C16.6654 26.6957 16.6905 26.715 16.711 26.7387C16.7314 26.7624 16.7469 26.79 16.7564 26.8198C16.7659 26.8497 16.7692 26.8811 16.7662 26.9123C16.7185 27.3539 16.8012 27.7998 17.004 28.195C17.1983 28.5884 17.4987 28.9196 17.8713 29.1513C18.244 29.3829 18.6739 29.5057 19.1127 29.5059H22.4196V26.9217H19.1502C19.1125 26.9205 19.0758 26.9094 19.0438 26.8894C19.0118 26.8693 18.9857 26.8412 18.9681 26.8077C18.9506 26.7743 18.9423 26.7368 18.9441 26.6991C18.9458 26.6614 18.9576 26.6248 18.9782 26.5931C19.0157 26.54 19.0564 26.4836 19.0971 26.4179C19.4099 25.9799 19.8479 25.2979 20.2891 24.5189C20.5987 23.9887 20.8736 23.439 21.1119 22.8732C21.1588 22.77 21.1995 22.6667 21.237 22.5604C21.2996 22.3789 21.3653 22.2131 21.4122 22.0441C21.4592 21.8752 21.4967 21.7532 21.5374 21.6155C21.6458 21.1203 21.6983 20.6145 21.6938 20.1075C21.6938 19.901 21.6938 19.6852 21.6656 19.4818C21.6375 19.2785 21.6281 19.0344 21.5999 18.8092C21.5718 18.5839 21.5468 18.415 21.5092 18.2085C21.4592 17.8956 21.3935 17.6109 21.3184 17.3106L21.2933 17.2073C21.237 17.0008 21.1901 16.8068 21.1213 16.6004C20.9367 15.9559 20.7208 15.327 20.4955 14.7232C20.4142 14.4885 20.3203 14.2633 20.2265 14.0412C20.0857 13.7033 19.9449 13.3935 19.8135 13.1026C19.7478 12.968 19.6915 12.8492 19.6352 12.724C19.5789 12.5989 19.5038 12.4456 19.4381 12.3142C19.3724 12.1828 19.338 12.1171 19.3004 12.0232L18.8937 11.2755C18.881 11.2528 18.8752 11.2269 18.8772 11.2009C18.8793 11.175 18.8889 11.1503 18.905 11.1298C18.9211 11.1094 18.9428 11.0942 18.9676 11.0862C18.9923 11.0781 19.0188 11.0776 19.0439 11.0846L21.5718 11.7698L21.9065 11.8605L22.2726 11.9669L22.4071 12.0044V10.5121C22.4063 10.3407 22.4392 10.1709 22.504 10.0123C22.5688 9.85374 22.6643 9.70945 22.7848 9.58773C22.9054 9.466 23.0487 9.36921 23.2067 9.30289C23.3647 9.23657 23.5342 9.20201 23.7055 9.20119C23.8768 9.20033 24.0465 9.23396 24.2045 9.30007C24.3626 9.36619 24.5057 9.46343 24.6253 9.58601C24.7479 9.70941 24.8447 9.85591 24.9103 10.017C24.9758 10.1781 25.0087 10.3507 25.007 10.5246V12.7553L25.2761 12.8335C25.2982 12.8396 25.3193 12.8491 25.3386 12.8617C25.4043 12.9117 25.4982 12.9868 25.6171 13.0744C25.736 13.162 25.8142 13.2434 25.9299 13.3372C26.174 13.5343 26.4649 13.7877 26.7841 14.0787C26.8685 14.1507 26.953 14.2257 27.0281 14.3008C27.4379 14.6856 27.901 15.133 28.339 15.6305C28.461 15.7681 28.583 15.9121 28.705 16.0591C28.827 16.2062 28.9584 16.372 29.0711 16.5096C29.2212 16.7067 29.3839 16.9132 29.5216 17.1354C29.5873 17.2355 29.6624 17.3387 29.725 17.4482C29.9064 17.7204 30.0628 18.002 30.2161 18.2804C30.2787 18.4118 30.3444 18.5526 30.4007 18.6934C30.5676 19.0602 30.6976 19.4428 30.7887 19.8353C30.8139 19.9181 30.8317 20.0029 30.8419 20.0888V20.1075C30.8675 20.2249 30.8832 20.3442 30.8888 20.4642C30.9277 20.8584 30.9055 21.2562 30.8231 21.6437C30.7863 21.8102 30.7393 21.9742 30.6823 22.1349C30.626 22.2976 30.5697 22.4477 30.4977 22.6229C30.3545 22.9576 30.184 23.2799 29.9878 23.5866C29.9252 23.6992 29.8501 23.8212 29.775 23.9338C29.6999 24.0465 29.6061 24.1685 29.531 24.278C29.4559 24.3875 29.3151 24.5689 29.2181 24.7035C29.1205 24.8421 29.0161 24.9757 28.9053 25.1039C28.7457 25.2916 28.5924 25.4668 28.436 25.6389C28.3421 25.7484 28.242 25.8611 28.1231 25.9518C28.0042 26.0425 27.9197 26.1677 27.8102 26.2646C27.6538 26.4211 27.5193 26.5462 27.4098 26.6463L27.1501 26.8841C27.1115 26.9189 27.0613 26.9379 27.0093 26.9373H25.0289V29.5215H27.5631C28.1273 29.5143 28.6706 29.307 29.0961 28.9365C29.6469 28.453 30.1692 27.938 30.6604 27.3941C30.6862 27.3652 30.7199 27.3445 30.7574 27.3346L37.753 25.3135C37.7836 25.3049 37.8157 25.3034 37.847 25.3092C37.8783 25.315 37.9078 25.3279 37.9332 25.347C37.9586 25.3661 37.9793 25.3908 37.9936 25.4192C38.008 25.4475 38.0155 25.4789 38.0158 25.5106Z" fill="white"/>
</g>
<defs>
<clipPath id="clip0_105_792">
<rect width="46" height="46" fill="white"/>
</clipPath>
</defs>
</svg>
